# xmcd
#
# Track frame offsets: 
#        150
#        11722
#        22495
#        33867
#        50290
#        60815
#
# Disc length: 1006 seconds
#
# Revision: 4
# Processed by: cddbd v1.4PL0 Copyright (c) Steve Scherf et al.
# Submitted via: ExactAudioCopy v0.90b4
#
DISCID=4203ec06
DTITLE=Various Artist - Alison Krauss and Union Station's (Bluegrass Ho
DTITLE=t Picks)
DYEAR=1900
DGENRE=Bluegrass
TTITLE0=Cold On The Shoulder - Tony Rice
TTITLE1=Unwanted Love - The Johnson Mountain Boys
TTITLE2=Every Humble Knee Must Bow - Nashville Bluegrass Band
TTITLE3=I Feel The Blues Moving In - Del McCoury
TTITLE4=Ten Degrees - J.D. Crowe and The New South
TTITLE5=Devil In Disguise - The Bluegrass Album Band
EXTD=ID3G: 2
EXTT0=
EXTT1=
EXTT2=
EXTT3=
EXTT4=
EXTT5=
PLAYORDER=
